<?xml version="1.0" standalone="no"?>
<!DOCTYPE svg PUBLIC "-//W3C//DTD SVG 20010904//EN"
 "http://www.w3.org/TR/2001/REC-SVG-20010904/DTD/svg10.dtd">
<svg version="1.0" xmlns="http://www.w3.org/2000/svg"
 width="1024.000000pt" height="1024.000000pt" viewBox="0 0 1024.000000 1024.000000"
 preserveAspectRatio="xMidYMid meet">

<g transform="translate(0.000000,1024.000000) scale(0.100000,-0.100000)"
fill="#000000" stroke="none">
<path d="M5714 8542 c-143 -74 -250 -143 -361 -234 l-72 -58 -108 6 c-170 10
-346 -20 -534 -92 l-94 -35 -35 19 c-62 34 -222 91 -328 116 -138 33 -312 60
-322 50 -4 -5 -17 -49 -28 -99 -63 -278 -65 -503 -7 -749 30 -126 45 -168 82
-231 25 -43 31 -64 36 -145 13 -221 119 -452 292 -639 49 -52 54 -62 39 -67
-60 -21 -114 -50 -203 -109 -90 -59 -103 -65 -123 -54 -29 15 -87 66 -111 96
-19 23 -18 24 6 56 112 148 111 337 -4 428 -24 19 -55 40 -69 46 -21 9 -25 18
-28 59 -4 61 -30 118 -79 168 -49 51 -88 66 -166 66 -54 0 -71 -5 -107 -29
l-44 -29 -44 34 c-56 42 -111 58 -177 49 -103 -13 -208 -101 -221 -186 -6 -36
-8 -37 -63 -48 -171 -34 -259 -274 -146 -400 30 -34 33 -42 37 -126 8 -146 76
-301 224 -510 82 -116 237 -279 340 -358 286 -217 635 -308 954 -247 25 4 46
7 48 5 5 -5 -44 -73 -98 -135 -29 -34 -71 -68 -98 -82 -44 -21 -59 -23 -222
-23 -204 0 -282 16 -434 88 -214 102 -376 267 -570 580 -60 98 -114 161 -179
210 -81 61 -110 70 -222 71 -90 1 -105 -2 -150 -26 -112 -59 -175 -172 -175
-313 0 -81 21 -150 81 -263 60 -112 106 -176 214 -297 205 -226 448 -391 735
-498 72 -27 277 -77 316 -77 2 0 4 -16 4 -36 0 -31 3 -35 18 -29 9 4 53 20 98
35 44 15 92 35 106 44 40 26 394 114 790 196 48 10 96 25 107 32 42 29 133
122 170 171 44 61 154 272 175 337 8 25 22 65 31 89 24 67 40 256 27 340 -13
91 -55 186 -78 177 -14 -5 -15 -4 -5 7 9 11 8 17 -3 26 -11 9 -14 4 -14 -29
-1 -23 -7 -49 -14 -58 -10 -12 -10 -14 0 -8 7 4 12 1 12 -8 0 -9 -9 -16 -20
-16 -11 0 -20 7 -20 15 0 10 -10 15 -29 15 -57 0 -91 12 -91 31 0 11 -4 19
-10 19 -5 0 -10 9 -10 20 0 13 -7 20 -19 20 -11 0 -22 6 -25 13 -5 10 -7 10
-12 0 -3 -7 -18 -13 -34 -13 -48 0 -90 -12 -90 -26 0 -10 -13 -14 -40 -14 -22
0 -40 5 -40 10 0 6 -27 10 -60 10 -33 0 -60 -4 -60 -10 0 -6 -39 -10 -96 -10
-87 0 -96 -2 -101 -20 -6 -23 -43 -27 -43 -5 0 8 -9 15 -20 15 -13 0 -20 -7
-20 -19 0 -15 -11 -20 -57 -26 -132 -19 -263 0 -263 37 0 13 -8 18 -26 18 -15
0 -34 9 -43 19 -20 23 -92 38 -88 19 1 -8 -8 -12 -27 -10 -18 3 -26 0 -22 -7
4 -6 3 -11 -2 -11 -26 0 -15 17 36 54 90 67 147 140 161 210 l6 29 32 -27 c49
-41 122 -70 178 -70 60 0 109 24 209 100 52 40 94 61 162 84 l93 30 85 -55
c112 -72 201 -109 311 -130 280 -52 516 -19 753 106 62 32 137 74 166 94 48
31 151 130 224 215 l30 34 84 -12 c114 -16 138 -15 203 9 43 16 75 40 143 107
48 48 101 104 118 126 l29 38 34 -52 c19 -29 30 -55 24 -59 -15 -10 -23 -39
-11 -43 6 -2 13 -39 16 -81 4 -73 4 -77 -17 -77 -14 0 -21 -6 -21 -19 0 -11
-9 -23 -20 -26 -11 -3 -20 -13 -20 -21 0 -8 -7 -14 -15 -14 -8 0 -15 -9 -15
-20 0 -16 -7 -20 -34 -20 -54 0 -96 -11 -96 -26 0 -8 -9 -14 -20 -14 -11 0
-20 -7 -20 -15 0 -8 -9 -15 -20 -15 -11 0 -20 -4 -20 -10 0 -5 -18 -10 -40
-10 -22 0 -40 -4 -40 -10 0 -5 -9 -10 -20 -10 -11 0 -20 -5 -20 -11 0 -6 -8
-9 -17 -7 -33 7 -53 -30 -54 -96 0 -34 -4 -70 -9 -81 -7 -14 -9 4 -8 58 1 61
-3 81 -17 97 -10 11 -22 17 -27 13 -6 -3 -14 1 -19 8 -5 8 -9 9 -9 3 0 -6 -13
-17 -30 -24 -22 -9 -30 -19 -30 -37 0 -13 -3 -22 -7 -20 -5 3 -9 -59 -10 -137
-3 -190 -32 -379 -54 -345 -8 12 -10 12 -19 -1 -15 -22 -12 -40 5 -34 8 4 15
1 15 -6 0 -6 -4 -9 -9 -6 -17 11 -33 -24 -37 -84 -9 -129 -125 -341 -319 -580
-83 -104 -103 -140 -67 -125 32 13 87 25 121 25 29 0 43 9 84 53 129 137 273
388 335 582 l29 90 59 6 c202 21 488 137 689 278 88 62 218 176 302 265 229
242 397 586 458 940 8 49 15 112 15 140 0 35 8 67 25 100 30 59 34 155 10 213
-37 87 -113 148 -194 156 -41 3 -46 7 -58 42 -18 54 -58 102 -110 135 -99 63
-208 59 -299 -10 l-53 -40 -42 15 c-130 46 -263 -19 -331 -160 -17 -38 -28
-76 -28 -104 0 -39 -5 -47 -45 -83 -72 -63 -90 -106 -90 -213 1 -107 27 -175
96 -250 41 -44 42 -46 31 -84 -17 -56 -81 -149 -146 -211 -82 -79 -94 -83
-193 -75 -46 4 -82 10 -81 13 38 71 72 155 94 227 46 155 45 429 -3 559 -11
30 -16 92 -18 226 -2 154 -7 206 -29 313 -30 141 -81 297 -128 391 -38 76
-115 196 -125 196 -5 0 -67 -31 -139 -68z m159 -227 c25 -55 48 -120 51 -145
l7 -45 -36 62 c-20 34 -47 69 -61 78 -25 16 -27 15 -63 -8 -21 -14 -59 -46
-84 -71 l-46 -45 -40 16 c-46 18 -53 39 -18 52 13 5 29 16 36 25 7 9 17 13 22
10 5 -3 12 2 15 10 3 9 11 13 17 9 6 -3 7 -1 3 6 -8 12 -81 -25 -123 -62 -20
-18 -27 -19 -63 -8 -22 6 -40 15 -40 20 0 13 91 73 225 148 102 58 132 70 142
60 6 -6 32 -57 56 -112z m-1773 -165 c98 -21 274 -73 299 -89 11 -7 3 -16 -34
-39 -50 -31 -84 -32 -92 -2 -3 13 -31 23 -111 39 -59 12 -114 19 -124 16 -11
-4 -23 -35 -37 -93 -41 -175 -45 -210 -25 -240 14 -21 14 -27 -3 -68 -10 -24
-21 -44 -25 -44 -8 0 -14 47 -23 160 -6 72 8 304 21 355 8 31 26 32 154 5z
m1293 -54 c158 -53 292 -139 424 -273 98 -98 151 -193 190 -341 21 -81 26
-127 30 -277 5 -174 4 -183 -22 -268 -37 -121 -113 -268 -180 -350 -191 -231
-584 -397 -849 -359 -160 23 -466 135 -482 176 -7 19 43 142 97 242 22 39 39
77 39 84 0 8 -19 33 -42 57 -23 23 -39 46 -35 50 4 3 13 1 19 -5 18 -18 97
-15 104 3 4 8 10 12 15 9 8 -5 13 9 10 29 0 4 5 7 12 7 18 0 59 58 51 72 -4 6
-3 8 4 5 10 -7 92 82 92 99 0 5 9 15 19 21 18 11 20 23 12 91 0 8 -6 10 -13 6
-10 -6 -10 -4 0 8 7 9 12 20 11 24 -1 5 3 22 9 37 31 74 22 168 -21 216 -45
49 -99 81 -138 81 -84 0 -153 -53 -185 -142 -20 -57 -18 -102 7 -151 54 -106
176 -145 262 -84 16 10 30 17 33 14 3 -3 -12 -17 -33 -31 -34 -24 -47 -26
-135 -26 -53 0 -99 4 -102 9 -3 5 -15 7 -26 4 -15 -4 -19 -1 -15 9 3 8 -6 24
-20 36 -22 19 -37 22 -116 22 -82 0 -91 2 -96 20 -3 11 -14 20 -24 20 -12 0
-19 -7 -19 -20 0 -16 -7 -20 -34 -20 -19 0 -38 -4 -41 -10 -10 -16 -45 -12
-45 6 0 11 6 15 20 11 18 -5 20 0 20 55 0 38 -4 57 -10 53 -7 -4 -10 7 -8 29
1 27 6 35 16 31 12 -4 12 -3 3 9 -7 8 -9 26 -5 43 6 27 6 27 -9 7 -9 -12 -20
-48 -26 -80 -5 -32 -14 -70 -19 -84 -5 -14 -13 -53 -17 -87 -4 -35 -12 -64
-19 -66 -10 -4 -8 -25 9 -91 13 -51 19 -89 13 -92 -5 -3 -11 -4 -12 -3 -11 14
-27 84 -37 168 -44 353 171 728 515 899 116 58 267 108 364 122 37 5 132 7
212 6 125 -3 156 -7 223 -30z m-1278 -46 c-3 -5 -12 -7 -20 -3 -21 7 -19 13 6
13 11 0 18 -4 14 -10z m3061 -244 c28 -28 34 -41 34 -79 0 -54 -29 -101 -82
-131 -35 -19 -40 -20 -65 -6 -51 29 -87 117 -71 178 11 41 59 72 112 72 30 0
45 -7 72 -34z m-3166 -37 c0 -11 -4 -17 -10 -14 -5 3 -10 0 -11 -7 0 -10 -2
-10 -6 -1 -2 7 2 19 9 27 17 20 18 20 18 -5z m2794 -9 c35 -13 66 -67 66 -115
0 -42 -29 -102 -55 -111 -19 -8 -104 34 -132 64 -42 45 -24 134 32 158 37 16
56 17 89 4z m669 -191 c40 -44 38 -100 -6 -144 -60 -60 -118 -57 -157 7 -70
116 71 235 163 137z m-2683 -99 c41 -41 12 -120 -44 -120 -28 0 -66 42 -66 72
0 25 44 68 70 68 11 0 29 -9 40 -20z m1935 -49 c24 -14 31 -24 33 -58 2 -32
-3 -47 -25 -73 -51 -61 -121 -75 -187 -37 -77 43 -96 127 -39 164 53 35 160
37 218 4z m410 -36 c22 -26 66 -76 97 -111 31 -36 59 -78 63 -94 9 -40 -11
-95 -42 -120 -36 -28 -83 -25 -154 12 l-60 32 -74 -38 c-54 -28 -81 -37 -100
-32 -75 19 -87 98 -29 185 20 30 43 76 50 104 22 84 72 120 159 113 45 -3 54
-8 90 -51z m-2945 -125 c0 -11 -7 -20 -15 -20 -8 0 -15 9 -15 20 0 11 7 20 15
20 8 0 15 -9 15 -20z m-990 -237 c77 -69 32 -213 -66 -213 -67 0 -134 91 -119
160 17 76 124 107 185 53z m381 -22 c23 -24 29 -38 29 -73 0 -51 -16 -78 -65
-108 -45 -28 -73 -21 -114 25 -41 47 -43 109 -5 154 22 27 32 31 76 31 41 0
54 -5 79 -29z m-631 -216 c20 -21 25 -35 25 -78 0 -75 -21 -111 -67 -115 -84
-7 -145 52 -135 131 12 90 113 125 177 62z m793 -57 c12 -6 27 -18 34 -27 18
-23 16 -98 -4 -128 -45 -68 -197 -70 -233 -4 -16 31 -12 96 8 120 39 47 142
68 195 39z m-404 -76 c15 -11 31 -38 38 -63 9 -28 30 -61 62 -94 79 -79 85
-126 25 -174 -31 -25 -63 -22 -126 10 -21 11 -41 19 -46 19 -5 0 -40 -25 -77
-55 -56 -46 -73 -55 -106 -55 -69 0 -110 68 -96 157 4 20 24 62 47 94 22 31
40 60 40 63 0 4 12 25 26 47 46 74 149 99 213 51z m3441 -24 c0 -10 -49 16
-54 29 -3 7 7 4 25 -5 16 -9 29 -20 29 -24z m50 -18 c13 -8 13 -10 -2 -10 -9
0 -20 5 -23 10 -8 13 5 13 25 0z m203 -34 c78 2 91 -5 59 -28 -10 -7 -21 -21
-25 -30 -3 -10 -12 -18 -19 -18 -10 0 -10 2 -1 8 30 19 -34 52 -105 54 -13 0
-36 6 -50 14 -26 14 -25 14 18 7 25 -5 80 -7 123 -7z m-3563 -706 c-19 -11
-46 -19 -60 -19 -18 0 -11 6 25 19 65 24 79 24 35 0z m-901 -14 c61 -31 134
-106 162 -165 66 -140 208 -334 293 -402 34 -26 80 -70 103 -97 l42 -50 -32
-63 c-27 -53 -40 -68 -80 -88 -38 -19 -52 -22 -70 -13 -12 6 -32 13 -43 17
-12 3 -31 13 -42 23 -11 9 -30 25 -41 34 -17 15 -19 22 -11 44 6 14 7 30 4 36
-4 6 -2 8 3 5 13 -8 26 20 16 35 -3 6 -2 9 3 6 5 -3 18 6 28 21 11 14 13 20 6
14 -8 -7 -18 -13 -23 -13 -5 0 -7 6 -4 13 5 17 -23 36 -56 37 -24 0 -27 3 -21
24 3 14 0 29 -10 39 -9 8 -16 23 -16 31 0 9 -8 16 -20 16 -23 0 -27 28 -9 62
17 31 2 34 -29 5 -34 -32 -149 -87 -168 -80 -8 3 -14 18 -14 33 0 15 -7 33
-15 40 -9 8 -15 8 -15 2 0 -6 -9 -14 -20 -17 -12 -4 -20 -15 -20 -28 0 -16 -3
-18 -9 -9 -6 10 -10 8 -15 -10 -6 -23 -7 -23 -36 12 -16 19 -49 73 -72 120
-42 82 -43 88 -43 180 0 116 16 149 89 185 64 32 122 32 185 1z m811 -16 c0
-5 -6 -10 -14 -10 -8 0 -18 5 -21 10 -3 6 3 10 14 10 12 0 21 -4 21 -10z
m1350 -247 c0 -5 -9 -19 -20 -33 l-20 -25 11 33 c10 28 29 45 29 25z m-370
-522 c-27 -58 -169 -201 -270 -271 -35 -25 -99 -71 -142 -103 -43 -32 -85 -57
-94 -55 -18 3 148 168 291 288 44 37 111 99 150 139 79 81 103 82 65 2z m-861
-100 c89 -30 190 -50 293 -58 75 -5 85 -8 70 -19 -53 -37 -277 -85 -337 -71
-22 4 -55 11 -73 14 -26 4 -30 8 -21 19 9 11 3 15 -30 20 -31 5 -41 11 -41 25
0 14 -7 19 -26 19 -17 0 -28 6 -31 20 -3 11 -9 20 -14 20 -5 0 -9 17 -10 38 0
30 -2 33 -9 17 -7 -17 -9 -14 -9 13 -1 20 3 31 9 27 6 -3 10 -2 10 4 0 5 35
-7 78 -28 42 -21 106 -48 141 -60z m-347 67 c-7 -7 -12 -8 -12 -2 0 6 3 14 7
17 3 4 9 5 12 2 2 -3 -1 -11 -7 -17z"/>
<path d="M5060 8047 c0 -17 31 -67 39 -63 4 3 8 -8 9 -24 2 -69 33 -141 99
-228 78 -102 113 -141 113 -126 0 5 -6 16 -12 23 -11 10 -10 12 1 9 19 -4 25
17 8 33 -15 16 -21 129 -6 129 5 0 9 8 9 18 0 13 2 14 9 3 6 -9 11 -10 15 -2
4 6 -13 45 -38 86 -25 42 -46 79 -46 82 0 3 -12 21 -26 40 -26 34 -26 34 -100
31 -41 -2 -74 -7 -74 -11z m109 -38 c19 -19 37 -29 47 -25 9 3 17 -1 21 -12 4
-9 11 -20 17 -24 6 -4 5 -21 -4 -50 -7 -24 -15 -38 -17 -31 -2 7 -10 10 -18 7
-7 -3 -23 4 -34 15 -19 19 -21 19 -22 4 0 -14 -2 -15 -6 -3 -8 25 -33 84 -43
102 -30 53 12 65 59 17z"/>
<path d="M5410 8029 c0 -4 11 -27 25 -50 14 -24 25 -38 25 -30 0 19 83 7 118
-18 33 -22 72 -43 72 -38 0 5 -103 68 -147 91 -18 9 -41 16 -52 16 -11 0 -25
8 -30 18 -6 9 -11 14 -11 11z"/>
<path d="M4766 8000 c-26 -10 -50 -21 -53 -24 -3 -2 16 -29 40 -59 51 -62 89
-152 91 -214 1 -52 17 -40 36 27 21 78 23 100 11 100 -7 0 -9 4 -6 10 3 5 -3
27 -14 49 -12 22 -22 60 -23 85 -3 53 -9 55 -82 26z"/>
<path d="M4860 8010 c0 -15 21 -48 53 -83 21 -23 25 -32 15 -38 -10 -7 -10 -9
2 -10 8 -1 17 -1 20 -1 3 0 21 -21 40 -48 19 -27 41 -49 48 -50 7 0 -9 29 -35
64 -137 182 -143 189 -143 166z"/>
<path d="M5431 7914 c0 -11 3 -14 6 -6 3 7 2 16 -1 19 -3 4 -6 -2 -5 -13z"/>
<path d="M4492 7850 l-23 -29 28 -8 c15 -4 33 -6 40 -5 7 2 17 -7 23 -18 8
-15 15 -18 28 -11 21 12 75 -17 68 -36 -7 -17 4 -44 14 -38 4 3 13 -2 20 -10
7 -8 22 -15 34 -15 17 0 18 2 6 10 -12 8 -10 10 10 7 14 -1 31 -6 38 -10 6 -5
12 -6 12 -4 0 8 -265 199 -273 196 -1 0 -12 -13 -25 -29z m93 -40 c3 -6 -1 -7
-9 -4 -18 7 -21 14 -7 14 6 0 13 -4 16 -10z"/>
<path d="M5416 7823 c-6 -14 -5 -15 5 -6 7 7 10 15 7 18 -3 3 -9 -2 -12 -12z"/>
<path d="M5580 7698 c-18 -13 -42 -35 -53 -50 -24 -33 -34 -122 -18 -169 22
-69 95 -127 168 -135 41 -5 54 -1 90 22 42 28 83 98 83 142 0 72 -67 182 -123
201 -50 18 -111 13 -147 -11z m144 -44 c37 -36 7 -114 -44 -114 -33 0 -70 40
-70 76 0 45 80 72 114 38z"/>
<path d="M5872 7658 c6 -19 16 -35 23 -35 17 0 7 32 -15 52 -18 16 -18 16 -8
-17z"/>
<path d="M4796 7671 c-3 -4 6 -13 19 -19 19 -9 23 -8 19 3 -7 17 -31 27 -38
16z"/>
<path d="M5485 7630 c3 -5 8 -10 11 -10 2 0 4 5 4 10 0 6 -5 10 -11 10 -5 0
-7 -4 -4 -10z"/>
<path d="M5920 7601 c0 -6 4 -13 10 -16 6 -3 7 1 4 9 -7 18 -14 21 -14 7z"/>
<path d="M5347 7575 c-4 -8 -2 -17 3 -20 6 -4 10 3 10 14 0 25 -6 27 -13 6z"/>
<path d="M5022 7525 c0 -16 2 -22 5 -12 2 9 2 23 0 30 -3 6 -5 -1 -5 -18z"/>
<path d="M5389 7525 c11 -42 203 -225 236 -225 15 0 154 -75 199 -107 74 -53
177 -104 165 -82 -10 20 -28 34 -44 34 -5 0 -10 5 -10 12 0 18 -11 24 -44 25
-18 1 -30 6 -28 12 5 14 -24 46 -42 46 -14 0 -66 49 -53 51 9 1 -90 34 -146
49 -23 6 -40 15 -37 20 3 5 -5 12 -18 15 -14 4 -31 21 -42 43 -10 20 -20 31
-22 25 -3 -7 -9 -13 -13 -13 -16 0 -50 43 -50 62 0 11 -4 17 -9 14 -5 -3 -8 1
-7 10 0 9 -9 20 -20 24 -19 8 -21 6 -15 -15z"/>
<path d="M4225 7509 c-4 -6 -5 -12 -2 -15 2 -3 7 2 10 11 7 17 1 20 -8 4z"/>
<path d="M5450 7482 c0 -5 7 -15 15 -22 8 -7 15 -8 15 -2 0 5 -7 15 -15 22 -8
7 -15 8 -15 2z"/>
<path d="M5007 7451 c-4 -17 -3 -21 5 -13 5 5 8 16 6 23 -3 8 -7 3 -11 -10z"/>
<path d="M5981 7454 c0 -11 3 -14 6 -6 3 7 2 16 -1 19 -3 4 -6 -2 -5 -13z"/>
<path d="M4501 7404 c0 -11 3 -14 6 -6 3 7 2 16 -1 19 -3 4 -6 -2 -5 -13z"/>
<path d="M4987 7403 c-16 -4 -18 -14 -16 -84 2 -43 7 -75 12 -70 9 9 36 115
37 144 0 17 -2 18 -33 10z"/>
<path d="M4440 7380 c0 -13 7 -20 20 -20 13 0 20 7 20 20 0 13 -7 20 -20 20
-13 0 -20 -7 -20 -20z"/>
<path d="M4220 7310 c0 -5 5 -10 10 -10 6 0 10 5 10 10 0 6 -4 10 -10 10 -5 0
-10 -4 -10 -10z"/>
<path d="M5292 7290 c-76 -20 -138 -46 -148 -62 -10 -16 26 -58 92 -105 39
-29 64 -54 64 -65 0 -44 -61 -119 -108 -133 -39 -12 -86 3 -130 41 -52 44 -76
42 -80 -8 -3 -31 3 -44 34 -78 49 -54 87 -73 149 -73 65 0 100 19 163 88 l51
55 47 -25 c54 -29 138 -34 182 -11 59 31 112 114 112 176 0 26 -38 70 -60 70
-4 0 -13 -21 -19 -46 -28 -109 -127 -134 -223 -54 l-32 27 28 93 c41 133 23
149 -122 110z"/>
<path d="M4915 7190 c-17 -6 -16 -7 8 -12 15 -3 30 -1 34 5 3 5 1 7 -5 3 -5
-3 -12 -2 -14 3 -1 4 -12 5 -23 1z"/>
<path d="M4923 7143 c-3 -10 -8 -22 -11 -27 -3 -5 0 -6 5 -3 11 7 25 47 17 47
-3 0 -7 -8 -11 -17z"/>
<path d="M2920 5239 c0 -5 5 -7 10 -4 6 3 10 8 10 11 0 2 -4 4 -10 4 -5 0 -10
-5 -10 -11z"/>
<path d="M5751 6125 c-1 -12 6 -48 15 -80 9 -33 25 -91 35 -130 l19 -70 -5 84
c-6 101 -25 191 -41 191 -7 0 -15 6 -17 13 -3 6 -6 3 -6 -8z"/>
<path d="M3710 6029 c-7 -11 -9 -24 -5 -27 3 -3 8 4 11 15 4 12 16 24 28 26
21 4 21 4 -1 6 -13 0 -27 -7 -33 -20z"/>
<path d="M3838 6003 c7 -3 16 -2 19 1 4 3 -2 6 -13 5 -11 0 -14 -3 -6 -6z"/>
<path d="M6735 4851 c-50 -13 -111 -48 -139 -82 -63 -74 -60 -52 -64 -553 -4
-520 -4 -517 71 -581 57 -49 97 -57 262 -53 138 3 143 4 190 33 26 17 62 50
79 73 l31 44 3 465 c3 456 2 466 -18 509 -32 65 -109 130 -171 143 -56 12
-197 13 -244 2z m190 -215 l26 -17 -4 -408 c-2 -224 -6 -412 -10 -418 -17 -28
-171 -24 -182 5 -3 8 -8 195 -11 416 -6 381 -5 402 13 418 10 9 27 18 38 21
34 10 104 0 130 -17z"/>
<path d="M7340 4207 l0 -644 77 -7 c42 -3 89 -6 105 -6 l28 0 0 238 c0 130 3
262 7 292 l7 55 32 -100 c63 -195 122 -347 160 -408 36 -59 44 -69 61 -68 8 0
45 98 129 345 35 104 65 191 67 192 1 1 2 -135 2 -304 l0 -306 100 -16 c55 -9
102 -15 105 -13 4 4 20 1284 16 1290 -5 8 -209 34 -215 27 -11 -12 -60 -159
-137 -413 -90 -297 -82 -287 -132 -149 -62 173 -91 268 -137 448 l-42 165 -73
7 c-41 3 -93 9 -117 13 l-43 6 0 -644z"/>
<path d="M6038 4819 c-129 -13 -219 -68 -271 -164 -20 -36 -22 -54 -21 -180 1
-184 6 -204 57 -257 49 -51 106 -81 208 -109 41 -11 89 -32 107 -45 l32 -25 0
-123 c0 -108 -2 -125 -19 -140 -44 -40 -141 -44 -161 -6 -5 10 -13 49 -16 87
l-7 69 -104 -20 -105 -20 4 -101 c4 -116 21 -153 90 -201 35 -25 53 -30 121
-33 104 -4 221 15 273 44 48 28 101 85 120 130 9 22 14 89 15 206 3 195 -1
210 -66 267 -42 38 -90 63 -165 87 -73 24 -109 42 -142 73 -27 25 -28 30 -28
124 0 94 1 98 26 114 14 10 46 19 72 21 38 4 51 1 70 -17 19 -18 22 -31 22
-91 0 -70 0 -71 24 -65 37 9 165 26 178 23 14 -3 11 183 -3 222 -14 35 -66 89
-109 110 -46 24 -107 30 -202 20z"/>
<path d="M5102 4704 c-23 -7 -73 -16 -110 -20 l-68 -6 -27 -162 c-15 -88 -43
-246 -62 -351 -19 -104 -37 -214 -41 -243 -3 -29 -10 -54 -13 -57 -13 -8 -101
496 -117 673 -4 39 -12 72 -17 72 -6 0 -38 -9 -71 -20 -34 -11 -80 -24 -103
-30 l-42 -10 -6 -58 c-32 -278 -78 -575 -113 -737 l-9 -40 -6 30 c-4 17 -21
116 -37 220 -17 105 -42 250 -55 323 -14 73 -25 152 -25 174 0 37 -2 40 -22
34 -13 -4 -63 -17 -111 -29 l-89 -22 6 -62 c4 -35 31 -185 60 -335 30 -150 78
-394 107 -541 50 -257 53 -268 73 -263 12 3 62 16 113 28 l92 23 7 45 c3 25
16 99 29 165 13 66 36 197 50 290 14 94 30 184 34 200 8 29 9 28 15 -20 17
-114 48 -294 61 -345 7 -30 23 -107 35 -170 13 -63 23 -116 24 -117 1 -1 44 9
96 22 52 14 105 25 118 25 12 0 22 4 22 10 0 5 18 103 40 217 83 429 110 571
130 693 12 69 35 187 51 263 17 77 29 140 27 141 -2 2 -22 -3 -46 -10z"/>
<path d="M8404 4065 c0 -635 0 -636 20 -640 12 -2 57 -10 101 -19 106 -20 382
-83 419 -96 55 -19 56 -18 56 88 l0 97 -191 50 -191 50 7 165 c4 91 8 166 9
167 3 3 262 -64 273 -70 6 -4 12 31 16 91 5 73 4 98 -6 101 -6 3 -75 21 -152
40 l-140 36 4 155 c2 85 4 156 6 158 2 2 81 -17 176 -41 96 -25 175 -44 176
-43 0 0 3 47 5 104 l3 103 -65 20 c-79 23 -487 119 -509 119 -14 0 -16 -65
-17 -635z"/>
<path d="M3553 4322 l-122 -36 -6 -36 c-36 -205 -239 -1239 -252 -1284 -4 -15
-2 -18 13 -11 11 4 62 23 116 42 l96 35 16 92 c8 50 18 112 22 138 4 32 12 49
23 52 9 2 60 16 114 31 54 15 100 25 101 24 2 -2 13 -58 25 -123 11 -66 22
-120 24 -122 3 -3 227 63 233 68 2 2 -8 40 -21 83 -14 44 -34 123 -45 175 -25
116 -109 475 -155 665 -18 77 -37 164 -40 193 -4 28 -10 52 -13 51 -4 -1 -62
-17 -129 -37z m71 -675 c9 -38 16 -72 16 -76 0 -14 -136 -58 -147 -48 -2 3 1
34 7 68 18 110 62 333 67 349 3 8 14 -39 23 -105 10 -66 25 -151 34 -188z"/>
<path d="M5510 4150 c-25 -4 -103 -16 -173 -26 -70 -10 -132 -21 -136 -24 -5
-3 -12 -52 -16 -108 -6 -98 -6 -104 12 -98 47 14 332 66 364 66 44 0 49 11 49
123 l0 77 -27 -1 c-16 -1 -48 -5 -73 -9z"/>
<path d="M2622 4056 l-103 -31 2 -653 c2 -448 6 -651 14 -648 77 33 297 117
395 151 69 24 133 47 143 50 15 6 17 21 17 107 0 91 -2 100 -17 93 -10 -4 -54
-18 -98 -31 -44 -13 -111 -35 -148 -49 -37 -14 -71 -25 -75 -25 -4 0 -6 241
-6 535 1 387 -2 535 -10 534 -6 -1 -57 -16 -114 -33z"/>
<path d="M2135 3849 c-127 -44 -266 -119 -319 -172 -90 -90 -90 -90 -88 -645
1 -456 2 -474 21 -506 49 -79 119 -80 286 -6 145 64 201 103 248 172 62 91 71
126 70 281 -1 76 -4 141 -7 144 -3 3 -32 -10 -63 -29 -32 -20 -77 -45 -100
-57 l-43 -21 0 -104 0 -103 -42 -29 c-55 -38 -121 -67 -143 -62 -16 3 -17 29
-16 408 2 358 4 407 18 423 30 32 121 79 150 75 24 -3 29 -9 35 -43 4 -22 7
-68 7 -103 l1 -62 58 28 c31 16 78 37 105 47 l47 18 0 76 c-1 127 -15 210 -42
238 -45 49 -104 59 -183 32z"/>
<path d="M6372 3227 c-86 -24 -150 -120 -122 -187 19 -46 73 -88 138 -105 92
-26 112 -36 112 -56 0 -45 -101 -51 -159 -9 -29 20 -34 21 -55 7 -68 -45 -66
-69 9 -113 36 -21 63 -27 130 -32 80 -4 87 -3 125 22 54 36 80 80 80 137 0 34
-5 50 -22 66 -31 28 -91 57 -159 76 -30 9 -64 26 -75 38 -19 21 -19 21 6 41
30 24 76 20 121 -13 l31 -21 36 33 c20 19 39 35 41 36 10 6 -27 37 -68 58 -59
29 -115 37 -169 22z"/>
<path d="M5890 3200 c-41 -4 -111 -8 -155 -9 l-80 -1 3 -242 c2 -134 5 -243 5
-243 1 -1 82 3 180 9 l177 9 0 57 0 57 -72 -4 c-40 -2 -94 -5 -120 -7 l-48 -3
0 32 c0 31 2 33 46 39 26 3 71 6 100 6 l54 0 0 50 0 50 -100 0 -100 0 0 39 0
38 68 6 c37 4 91 7 120 7 l52 0 0 60 c0 69 14 63 -130 50z"/>
<path d="M6912 3180 c-132 -95 -74 -222 128 -282 38 -11 45 -17 45 -38 0 -22
-5 -25 -40 -28 -31 -2 -50 4 -78 23 -21 14 -41 25 -44 25 -18 0 -83 -37 -83
-47 0 -21 50 -71 93 -92 53 -26 163 -29 207 -6 72 37 106 153 60 203 -27 28
-81 55 -151 75 -30 9 -64 26 -75 38 -18 20 -18 21 1 35 28 20 88 17 118 -6 33
-26 55 -25 100 6 38 25 38 26 20 46 -35 40 -133 78 -199 78 -52 0 -67 -4 -102
-30z"/>
<path d="M5306 3079 c-3 -34 -6 -93 -6 -132 l0 -70 -28 39 c-16 21 -61 69
-101 107 -69 65 -73 67 -123 67 l-51 0 7 -197 c4 -109 9 -218 12 -243 l6 -45
54 9 53 10 3 120 3 120 104 -98 c103 -98 104 -98 145 -92 22 4 42 9 45 12 8 7
6 168 -3 317 l-8 137 -53 0 -52 0 -7 -61z"/>
<path d="M7511 3056 c-7 -8 -14 -30 -14 -48 -2 -32 -1 -33 43 -35 251 -13 472
-42 626 -83 126 -34 130 -35 137 -17 11 30 -6 69 -37 82 -69 30 -371 89 -506
99 -41 3 -111 8 -156 12 -66 5 -82 3 -93 -10z"/>
<path d="M4645 3015 c-55 -13 -137 -32 -182 -42 l-83 -18 0 -52 c0 -50 1 -53
23 -49 12 3 44 8 70 11 l48 6 -3 -185 c-3 -161 -1 -185 12 -181 8 2 29 7 45
10 17 4 37 9 45 11 13 3 15 31 12 188 l-4 183 24 6 c13 4 37 7 53 7 61 1 77
10 70 41 -4 15 -7 41 -7 58 -1 36 4 36 -123 6z"/>
<path d="M4088 2882 l-48 -16 0 -249 c0 -195 3 -248 13 -243 6 2 36 12 65 21
l52 16 0 207 c0 219 -6 283 -24 281 -6 0 -32 -8 -58 -17z"/>
<path d="M7500 2871 c0 -23 12 -27 95 -36 93 -10 408 -55 428 -61 42 -13 203
-31 211 -23 16 14 -25 43 -73 50 -25 5 -75 15 -110 23 -35 8 -105 15 -155 16
-50 1 -116 6 -146 11 -128 20 -197 31 -222 35 -23 5 -28 2 -28 -15z"/>
<path d="M3788 2799 c-10 -5 -84 -32 -165 -59 l-148 -49 -6 -113 c-12 -212
-10 -378 4 -377 6 0 35 8 62 18 l50 18 3 89 3 90 82 27 c46 15 92 27 103 27
16 0 19 8 22 55 3 67 -1 68 -118 25 -45 -16 -82 -30 -83 -30 -1 0 -3 22 -3 49
l-2 50 87 31 c47 18 101 34 119 37 32 6 32 6 32 64 0 61 -7 69 -42 48z"/>
<path d="M2885 2406 c-240 -80 -377 -136 -454 -185 -54 -35 -64 -51 -55 -87 6
-23 24 -34 24 -15 0 18 128 69 385 154 143 48 285 93 317 102 45 13 57 21 62
40 8 31 -13 65 -39 64 -11 0 -119 -33 -240 -73z"/>
<path d="M3120 2312 c-19 -9 -55 -29 -80 -44 -25 -14 -74 -32 -110 -40 -36 -7
-80 -23 -99 -35 -18 -12 -49 -25 -70 -29 -20 -4 -45 -11 -56 -17 -11 -6 -29
-12 -39 -14 -11 -2 -26 -9 -34 -15 -8 -7 -19 -13 -26 -14 -6 -1 -45 -17 -86
-34 -57 -25 -78 -30 -91 -22 -20 13 -29 6 -29 -20 0 -23 19 -19 155 33 55 21
183 70 285 109 102 39 197 77 211 85 14 8 29 12 33 8 3 -3 6 -1 6 5 0 6 10 12
21 14 12 2 28 13 37 26 17 26 17 26 -28 4z"/>
</g>
</svg>
